solid AssimpScene
 facet normal 0 0.866025 0.5
  outer loop
  vertex 0 10 0
  vertex 5 5 8.66025
  vertex 10 10 0
  endloop
 endfacet

 facet normal 0.866025 0 0.5
  outer loop
  vertex 10 10 0
  vertex 5 5 8.66025
  vertex 10 0 0
  endloop
 endfacet

 facet normal 0 -0.866025 0.5
  outer loop
  vertex 10 0 0
  vertex 5 5 8.66025
  vertex 0 0 0
  endloop
 endfacet

 facet normal -0.866025 0 0.5
  outer loop
  vertex 0 0 0
  vertex 5 5 8.66025
  vertex 0 10 0
  endloop
 endfacet

 facet normal 0 0 -1
  outer loop
  vertex 0 10 0
  vertex 10 10 0
  vertex 0 0 0
  endloop
 endfacet

 facet normal 0 0 -1
  outer loop
  vertex 0 0 0
  vertex 10 10 0
  vertex 10 0 0
  endloop
 endfacet

endsolid AssimpScene
